<mxfile host="app.diagrams.net" agent="Mozilla/5.0 (Macintosh; Intel Mac OS X 10_15_7) AppleWebKit/537.36 (KHTML, like Gecko) Chrome/137.0.0.0 Safari/537.36" version="28.0.7">
  <diagram name="Page-1" id="UMYnOlBQfNwMIUfOVLpk">
    <mxGraphModel dx="1148" dy="816" grid="1" gridSize="10" guides="1" tooltips="1" connect="1" arrows="1" fold="1" page="1" pageScale="1" pageWidth="827" pageHeight="1169" math="0" shadow="0">
      <root>
        <mxCell id="0" />
        <mxCell id="1" parent="0" />
        <mxCell id="O6zO1VfGxvm90Is3R1CI-14" value="" style="edgeStyle=orthogonalEdgeStyle;rounded=0;orthogonalLoop=1;jettySize=auto;html=1;" edge="1" parent="1" source="O6zO1VfGxvm90Is3R1CI-1" target="O6zO1VfGxvm90Is3R1CI-2">
          <mxGeometry relative="1" as="geometry" />
        </mxCell>
        <mxCell id="O6zO1VfGxvm90Is3R1CI-1" value="start" style="ellipse;whiteSpace=wrap;html=1;fillColor=#60a917;fontColor=#ffffff;strokeColor=#2D7600;" vertex="1" parent="1">
          <mxGeometry x="335" y="250" width="120" height="80" as="geometry" />
        </mxCell>
        <mxCell id="O6zO1VfGxvm90Is3R1CI-15" value="" style="edgeStyle=orthogonalEdgeStyle;rounded=0;orthogonalLoop=1;jettySize=auto;html=1;" edge="1" parent="1" source="O6zO1VfGxvm90Is3R1CI-2" target="O6zO1VfGxvm90Is3R1CI-5">
          <mxGeometry relative="1" as="geometry" />
        </mxCell>
        <mxCell id="O6zO1VfGxvm90Is3R1CI-2" value="Enter username and password" style="rounded=0;whiteSpace=wrap;html=1;fillColor=#0050ef;fontColor=#ffffff;strokeColor=#001DBC;" vertex="1" parent="1">
          <mxGeometry x="335" y="370" width="120" height="60" as="geometry" />
        </mxCell>
        <mxCell id="O6zO1VfGxvm90Is3R1CI-21" style="edgeStyle=orthogonalEdgeStyle;rounded=0;orthogonalLoop=1;jettySize=auto;html=1;entryX=1;entryY=0.5;entryDx=0;entryDy=0;" edge="1" parent="1" source="O6zO1VfGxvm90Is3R1CI-3" target="O6zO1VfGxvm90Is3R1CI-2">
          <mxGeometry relative="1" as="geometry">
            <mxPoint x="570" y="380" as="targetPoint" />
            <Array as="points">
              <mxPoint x="740" y="400" />
            </Array>
          </mxGeometry>
        </mxCell>
        <mxCell id="O6zO1VfGxvm90Is3R1CI-3" value="increment attempts&amp;nbsp;" style="rounded=0;whiteSpace=wrap;html=1;fillColor=#0050ef;fontColor=#ffffff;strokeColor=#001DBC;" vertex="1" parent="1">
          <mxGeometry x="680" y="500" width="120" height="60" as="geometry" />
        </mxCell>
        <mxCell id="O6zO1VfGxvm90Is3R1CI-16" value="" style="edgeStyle=orthogonalEdgeStyle;rounded=0;orthogonalLoop=1;jettySize=auto;html=1;" edge="1" parent="1" source="O6zO1VfGxvm90Is3R1CI-5" target="O6zO1VfGxvm90Is3R1CI-6">
          <mxGeometry relative="1" as="geometry" />
        </mxCell>
        <mxCell id="O6zO1VfGxvm90Is3R1CI-31" value="" style="edgeStyle=orthogonalEdgeStyle;rounded=0;orthogonalLoop=1;jettySize=auto;html=1;" edge="1" parent="1" source="O6zO1VfGxvm90Is3R1CI-5" target="O6zO1VfGxvm90Is3R1CI-6">
          <mxGeometry relative="1" as="geometry" />
        </mxCell>
        <mxCell id="O6zO1VfGxvm90Is3R1CI-37" value="" style="edgeStyle=orthogonalEdgeStyle;rounded=0;orthogonalLoop=1;jettySize=auto;html=1;" edge="1" parent="1" source="O6zO1VfGxvm90Is3R1CI-5" target="O6zO1VfGxvm90Is3R1CI-35">
          <mxGeometry relative="1" as="geometry" />
        </mxCell>
        <mxCell id="O6zO1VfGxvm90Is3R1CI-5" value="is username valid" style="rhombus;whiteSpace=wrap;html=1;" vertex="1" parent="1">
          <mxGeometry x="310" y="490" width="170" height="80" as="geometry" />
        </mxCell>
        <mxCell id="O6zO1VfGxvm90Is3R1CI-18" value="" style="edgeStyle=orthogonalEdgeStyle;rounded=0;orthogonalLoop=1;jettySize=auto;html=1;" edge="1" parent="1" source="O6zO1VfGxvm90Is3R1CI-6" target="O6zO1VfGxvm90Is3R1CI-7">
          <mxGeometry relative="1" as="geometry" />
        </mxCell>
        <mxCell id="O6zO1VfGxvm90Is3R1CI-33" value="" style="edgeStyle=orthogonalEdgeStyle;rounded=0;orthogonalLoop=1;jettySize=auto;html=1;" edge="1" parent="1" source="O6zO1VfGxvm90Is3R1CI-6" target="O6zO1VfGxvm90Is3R1CI-32">
          <mxGeometry relative="1" as="geometry" />
        </mxCell>
        <mxCell id="O6zO1VfGxvm90Is3R1CI-6" value="is password correct" style="rhombus;whiteSpace=wrap;html=1;" vertex="1" parent="1">
          <mxGeometry x="310" y="600" width="170" height="80" as="geometry" />
        </mxCell>
        <mxCell id="O6zO1VfGxvm90Is3R1CI-23" value="" style="edgeStyle=orthogonalEdgeStyle;rounded=0;orthogonalLoop=1;jettySize=auto;html=1;" edge="1" parent="1" source="O6zO1VfGxvm90Is3R1CI-7">
          <mxGeometry relative="1" as="geometry">
            <mxPoint x="520" y="750" as="targetPoint" />
          </mxGeometry>
        </mxCell>
        <mxCell id="O6zO1VfGxvm90Is3R1CI-24" style="edgeStyle=orthogonalEdgeStyle;rounded=0;orthogonalLoop=1;jettySize=auto;html=1;entryX=0.5;entryY=0;entryDx=0;entryDy=0;" edge="1" parent="1" source="O6zO1VfGxvm90Is3R1CI-7" target="O6zO1VfGxvm90Is3R1CI-11">
          <mxGeometry relative="1" as="geometry" />
        </mxCell>
        <mxCell id="O6zO1VfGxvm90Is3R1CI-7" value="have 3 attempts been exceeded" style="rhombus;whiteSpace=wrap;html=1;" vertex="1" parent="1">
          <mxGeometry x="310" y="710" width="170" height="80" as="geometry" />
        </mxCell>
        <mxCell id="O6zO1VfGxvm90Is3R1CI-20" value="" style="edgeStyle=orthogonalEdgeStyle;rounded=0;orthogonalLoop=1;jettySize=auto;html=1;" edge="1" parent="1" target="O6zO1VfGxvm90Is3R1CI-3">
          <mxGeometry relative="1" as="geometry">
            <mxPoint x="640" y="530" as="sourcePoint" />
          </mxGeometry>
        </mxCell>
        <mxCell id="O6zO1VfGxvm90Is3R1CI-9" value="lock account" style="rounded=0;whiteSpace=wrap;html=1;fillColor=#0050ef;fontColor=#ffffff;strokeColor=#001DBC;" vertex="1" parent="1">
          <mxGeometry x="525" y="720" width="120" height="60" as="geometry" />
        </mxCell>
        <mxCell id="O6zO1VfGxvm90Is3R1CI-26" style="edgeStyle=orthogonalEdgeStyle;rounded=0;orthogonalLoop=1;jettySize=auto;html=1;entryX=1;entryY=0.5;entryDx=0;entryDy=0;" edge="1" parent="1" target="O6zO1VfGxvm90Is3R1CI-13">
          <mxGeometry relative="1" as="geometry">
            <mxPoint x="580" y="780" as="sourcePoint" />
            <Array as="points">
              <mxPoint x="580" y="885" />
            </Array>
          </mxGeometry>
        </mxCell>
        <mxCell id="O6zO1VfGxvm90Is3R1CI-25" style="edgeStyle=orthogonalEdgeStyle;rounded=0;orthogonalLoop=1;jettySize=auto;html=1;entryX=0;entryY=0.5;entryDx=0;entryDy=0;" edge="1" parent="1" source="O6zO1VfGxvm90Is3R1CI-11" target="O6zO1VfGxvm90Is3R1CI-13">
          <mxGeometry relative="1" as="geometry">
            <Array as="points">
              <mxPoint x="210" y="885" />
            </Array>
          </mxGeometry>
        </mxCell>
        <mxCell id="O6zO1VfGxvm90Is3R1CI-11" value="reset error message" style="rounded=0;whiteSpace=wrap;html=1;fillColor=#0050ef;fontColor=#ffffff;strokeColor=#001DBC;" vertex="1" parent="1">
          <mxGeometry x="150" y="780" width="120" height="60" as="geometry" />
        </mxCell>
        <mxCell id="O6zO1VfGxvm90Is3R1CI-28" value="" style="edgeStyle=orthogonalEdgeStyle;rounded=0;orthogonalLoop=1;jettySize=auto;html=1;" edge="1" parent="1" source="O6zO1VfGxvm90Is3R1CI-13">
          <mxGeometry relative="1" as="geometry">
            <mxPoint x="395" y="950" as="targetPoint" />
          </mxGeometry>
        </mxCell>
        <mxCell id="O6zO1VfGxvm90Is3R1CI-13" value="" style="ellipse;whiteSpace=wrap;html=1;aspect=fixed;" vertex="1" parent="1">
          <mxGeometry x="370" y="860" width="50" height="50" as="geometry" />
        </mxCell>
        <mxCell id="O6zO1VfGxvm90Is3R1CI-30" value="end" style="ellipse;whiteSpace=wrap;html=1;fillColor=#60a917;fontColor=#ffffff;strokeColor=#2D7600;" vertex="1" parent="1">
          <mxGeometry x="335" y="950" width="120" height="80" as="geometry" />
        </mxCell>
        <mxCell id="O6zO1VfGxvm90Is3R1CI-34" value="" style="edgeStyle=orthogonalEdgeStyle;rounded=0;orthogonalLoop=1;jettySize=auto;html=1;" edge="1" parent="1" source="O6zO1VfGxvm90Is3R1CI-32" target="O6zO1VfGxvm90Is3R1CI-9">
          <mxGeometry relative="1" as="geometry" />
        </mxCell>
        <mxCell id="O6zO1VfGxvm90Is3R1CI-32" value="show error message" style="shape=parallelogram;perimeter=parallelogramPerimeter;whiteSpace=wrap;html=1;fixedSize=1;" vertex="1" parent="1">
          <mxGeometry x="515" y="610" width="140" height="60" as="geometry" />
        </mxCell>
        <mxCell id="O6zO1VfGxvm90Is3R1CI-35" value="show error message" style="shape=parallelogram;perimeter=parallelogramPerimeter;whiteSpace=wrap;html=1;fixedSize=1;" vertex="1" parent="1">
          <mxGeometry x="515" y="500" width="140" height="60" as="geometry" />
        </mxCell>
      </root>
    </mxGraphModel>
  </diagram>
</mxfile>
